<mxfile host="app.diagrams.net" agent="Mozilla/5.0 (Windows NT 10.0; Win64; x64) AppleWebKit/537.36 (KHTML, like Gecko) Chrome/131.0.0.0 Safari/537.36" version="26.0.3">
  <diagram name="Page-1" id="lf4MxiJcXVvmTzp2qrsN">
    <mxGraphModel dx="1154" dy="537" grid="1" gridSize="10" guides="1" tooltips="1" connect="1" arrows="1" fold="1" page="1" pageScale="1" pageWidth="1100" pageHeight="850" math="0" shadow="0">
      <root>
        <mxCell id="0" />
        <mxCell id="1" parent="0" />
        <mxCell id="4Sk_fZ0J_zC8fQVQbB8X-6" value="" style="outlineConnect=0;dashed=0;verticalLabelPosition=bottom;verticalAlign=top;align=center;html=1;shape=mxgraph.aws3.management_console;fillColor=#D2D3D3;gradientColor=none;" vertex="1" parent="1">
          <mxGeometry x="30" y="59" width="63" height="63" as="geometry" />
        </mxCell>
        <mxCell id="4Sk_fZ0J_zC8fQVQbB8X-7" value="" style="outlineConnect=0;dashed=0;verticalLabelPosition=bottom;verticalAlign=top;align=center;html=1;shape=mxgraph.aws3.management_console;fillColor=#D2D3D3;gradientColor=none;" vertex="1" parent="1">
          <mxGeometry x="30" y="152" width="63" height="63" as="geometry" />
        </mxCell>
        <mxCell id="4Sk_fZ0J_zC8fQVQbB8X-8" value="" style="outlineConnect=0;dashed=0;verticalLabelPosition=bottom;verticalAlign=top;align=center;html=1;shape=mxgraph.aws3.management_console;fillColor=#D2D3D3;gradientColor=none;" vertex="1" parent="1">
          <mxGeometry x="30" y="242" width="63" height="63" as="geometry" />
        </mxCell>
        <mxCell id="4Sk_fZ0J_zC8fQVQbB8X-9" style="edgeStyle=orthogonalEdgeStyle;rounded=0;orthogonalLoop=1;jettySize=auto;html=1;entryX=0;entryY=0.5;entryDx=0;entryDy=0;" edge="1" parent="1" source="4Sk_fZ0J_zC8fQVQbB8X-7" target="4Sk_fZ0J_zC8fQVQbB8X-23">
          <mxGeometry relative="1" as="geometry">
            <mxPoint x="340" y="184" as="targetPoint" />
          </mxGeometry>
        </mxCell>
        <mxCell id="4Sk_fZ0J_zC8fQVQbB8X-10" style="edgeStyle=orthogonalEdgeStyle;rounded=0;orthogonalLoop=1;jettySize=auto;html=1;entryX=0;entryY=0.5;entryDx=0;entryDy=0;" edge="1" parent="1" source="4Sk_fZ0J_zC8fQVQbB8X-6" target="4Sk_fZ0J_zC8fQVQbB8X-23">
          <mxGeometry relative="1" as="geometry">
            <mxPoint x="190" y="183.5000000000001" as="targetPoint" />
          </mxGeometry>
        </mxCell>
        <mxCell id="4Sk_fZ0J_zC8fQVQbB8X-11" style="edgeStyle=orthogonalEdgeStyle;rounded=0;orthogonalLoop=1;jettySize=auto;html=1;entryX=0;entryY=0.5;entryDx=0;entryDy=0;" edge="1" parent="1" source="4Sk_fZ0J_zC8fQVQbB8X-8" target="4Sk_fZ0J_zC8fQVQbB8X-23">
          <mxGeometry relative="1" as="geometry">
            <mxPoint x="190" y="183.5000000000001" as="targetPoint" />
          </mxGeometry>
        </mxCell>
        <mxCell id="4Sk_fZ0J_zC8fQVQbB8X-42" style="edgeStyle=orthogonalEdgeStyle;rounded=0;orthogonalLoop=1;jettySize=auto;html=1;entryX=0;entryY=0.25;entryDx=0;entryDy=0;exitX=1;exitY=0.25;exitDx=0;exitDy=0;" edge="1" parent="1" source="4Sk_fZ0J_zC8fQVQbB8X-23" target="4Sk_fZ0J_zC8fQVQbB8X-39">
          <mxGeometry relative="1" as="geometry">
            <Array as="points">
              <mxPoint x="400" y="122" />
            </Array>
          </mxGeometry>
        </mxCell>
        <mxCell id="4Sk_fZ0J_zC8fQVQbB8X-23" value="Kubernetes cluster" style="rounded=0;whiteSpace=wrap;html=1;verticalAlign=top;" vertex="1" parent="1">
          <mxGeometry x="220" y="65.87" width="120" height="226.13" as="geometry" />
        </mxCell>
        <mxCell id="4Sk_fZ0J_zC8fQVQbB8X-43" value="" style="group" vertex="1" connectable="0" parent="1">
          <mxGeometry x="420" y="65.86999999999999" width="100" height="228.06" as="geometry" />
        </mxCell>
        <mxCell id="4Sk_fZ0J_zC8fQVQbB8X-39" value="Kafka cluster" style="rounded=0;whiteSpace=wrap;html=1;verticalAlign=top;movable=1;resizable=1;rotatable=1;deletable=1;editable=1;locked=0;connectable=1;" vertex="1" parent="4Sk_fZ0J_zC8fQVQbB8X-43">
          <mxGeometry width="100" height="228.06" as="geometry" />
        </mxCell>
        <mxCell id="4Sk_fZ0J_zC8fQVQbB8X-34" value="" style="points=[];aspect=fixed;html=1;align=center;shadow=0;dashed=0;fillColor=#FF6A00;strokeColor=none;shape=mxgraph.alibaba_cloud.kafka;movable=1;resizable=1;rotatable=1;deletable=1;editable=1;locked=0;connectable=1;" vertex="1" parent="4Sk_fZ0J_zC8fQVQbB8X-43">
          <mxGeometry x="21.649999999999977" y="24.17436" width="51.724008" height="38.314080000000004" as="geometry" />
        </mxCell>
        <mxCell id="4Sk_fZ0J_zC8fQVQbB8X-40" value="" style="points=[];aspect=fixed;html=1;align=center;shadow=0;dashed=0;fillColor=#FF6A00;strokeColor=none;shape=mxgraph.alibaba_cloud.kafka;movable=1;resizable=1;rotatable=1;deletable=1;editable=1;locked=0;connectable=1;" vertex="1" parent="4Sk_fZ0J_zC8fQVQbB8X-43">
          <mxGeometry x="21.649999999999977" y="88.48728" width="51.724008" height="38.314080000000004" as="geometry" />
        </mxCell>
        <mxCell id="4Sk_fZ0J_zC8fQVQbB8X-41" value="" style="points=[];aspect=fixed;html=1;align=center;shadow=0;dashed=0;fillColor=#FF6A00;strokeColor=none;shape=mxgraph.alibaba_cloud.kafka;movable=1;resizable=1;rotatable=1;deletable=1;editable=1;locked=0;connectable=1;" vertex="1" parent="4Sk_fZ0J_zC8fQVQbB8X-43">
          <mxGeometry x="21.649999999999977" y="151.88796000000002" width="51.724008" height="38.314080000000004" as="geometry" />
        </mxCell>
        <mxCell id="4Sk_fZ0J_zC8fQVQbB8X-46" value="S3 / storage" style="sketch=0;points=[[0,0,0],[0.25,0,0],[0.5,0,0],[0.75,0,0],[1,0,0],[0,1,0],[0.25,1,0],[0.5,1,0],[0.75,1,0],[1,1,0],[0,0.25,0],[0,0.5,0],[0,0.75,0],[1,0.25,0],[1,0.5,0],[1,0.75,0]];outlineConnect=0;fontColor=#232F3E;fillColor=#7AA116;strokeColor=#ffffff;dashed=0;verticalLabelPosition=bottom;verticalAlign=top;align=center;html=1;fontSize=12;fontStyle=0;aspect=fixed;shape=mxgraph.aws4.resourceIcon;resIcon=mxgraph.aws4.s3;" vertex="1" parent="1">
          <mxGeometry x="630" y="140.9" width="78" height="78" as="geometry" />
        </mxCell>
        <mxCell id="4Sk_fZ0J_zC8fQVQbB8X-47" style="edgeStyle=orthogonalEdgeStyle;rounded=0;orthogonalLoop=1;jettySize=auto;html=1;" edge="1" parent="1" source="4Sk_fZ0J_zC8fQVQbB8X-39" target="4Sk_fZ0J_zC8fQVQbB8X-46">
          <mxGeometry relative="1" as="geometry" />
        </mxCell>
        <mxCell id="4Sk_fZ0J_zC8fQVQbB8X-48" value="App Flow" style="text;html=1;align=center;verticalAlign=middle;resizable=0;points=[];autosize=1;strokeColor=none;fillColor=none;fontSize=18;" vertex="1" parent="1">
          <mxGeometry x="25" y="365" width="100" height="40" as="geometry" />
        </mxCell>
        <mxCell id="4Sk_fZ0J_zC8fQVQbB8X-49" value="&lt;font style=&quot;font-size: 18px;&quot;&gt;Basic architecture&lt;/font&gt;" style="text;html=1;align=center;verticalAlign=middle;resizable=0;points=[];autosize=1;strokeColor=none;fillColor=none;" vertex="1" parent="1">
          <mxGeometry x="25" y="15" width="170" height="40" as="geometry" />
        </mxCell>
        <mxCell id="4Sk_fZ0J_zC8fQVQbB8X-74" style="edgeStyle=orthogonalEdgeStyle;rounded=0;orthogonalLoop=1;jettySize=auto;html=1;entryX=0;entryY=0.5;entryDx=0;entryDy=0;" edge="1" parent="1" source="4Sk_fZ0J_zC8fQVQbB8X-51" target="4Sk_fZ0J_zC8fQVQbB8X-73">
          <mxGeometry relative="1" as="geometry" />
        </mxCell>
        <mxCell id="4Sk_fZ0J_zC8fQVQbB8X-75" value="Stream updates&lt;div&gt;to topic (room)&lt;/div&gt;" style="edgeLabel;html=1;align=center;verticalAlign=middle;resizable=0;points=[];" vertex="1" connectable="0" parent="4Sk_fZ0J_zC8fQVQbB8X-74">
          <mxGeometry x="-0.0695" y="1" relative="1" as="geometry">
            <mxPoint as="offset" />
          </mxGeometry>
        </mxCell>
        <mxCell id="4Sk_fZ0J_zC8fQVQbB8X-51" value="WebSocket&lt;div&gt;microservice&lt;/div&gt;" style="verticalLabelPosition=bottom;html=1;verticalAlign=top;align=center;strokeColor=none;fillColor=#00BEF2;shape=mxgraph.azure.server_rack;" vertex="1" parent="1">
          <mxGeometry x="290" y="590" width="50" height="50" as="geometry" />
        </mxCell>
        <mxCell id="4Sk_fZ0J_zC8fQVQbB8X-52" value="Microservices" style="verticalLabelPosition=bottom;html=1;verticalAlign=top;align=center;strokeColor=none;fillColor=#00BEF2;shape=mxgraph.azure.server_rack;" vertex="1" parent="1">
          <mxGeometry x="255" y="139.94" width="50" height="50" as="geometry" />
        </mxCell>
        <mxCell id="4Sk_fZ0J_zC8fQVQbB8X-59" style="edgeStyle=orthogonalEdgeStyle;rounded=0;orthogonalLoop=1;jettySize=auto;html=1;entryX=0;entryY=0.5;entryDx=0;entryDy=0;entryPerimeter=0;exitX=1;exitY=0.5;exitDx=0;exitDy=0;exitPerimeter=0;" edge="1" parent="1" source="4Sk_fZ0J_zC8fQVQbB8X-64" target="4Sk_fZ0J_zC8fQVQbB8X-51">
          <mxGeometry relative="1" as="geometry">
            <mxPoint x="122.77999999999997" y="472.7500000000002" as="sourcePoint" />
            <Array as="points">
              <mxPoint x="120" y="615" />
              <mxPoint x="120" y="615" />
            </Array>
          </mxGeometry>
        </mxCell>
        <mxCell id="4Sk_fZ0J_zC8fQVQbB8X-61" value="Connect to room" style="edgeLabel;html=1;align=center;verticalAlign=middle;resizable=0;points=[];" vertex="1" connectable="0" parent="4Sk_fZ0J_zC8fQVQbB8X-59">
          <mxGeometry x="0.5916" relative="1" as="geometry">
            <mxPoint x="-24" as="offset" />
          </mxGeometry>
        </mxCell>
        <mxCell id="4Sk_fZ0J_zC8fQVQbB8X-62" style="edgeStyle=orthogonalEdgeStyle;rounded=0;orthogonalLoop=1;jettySize=auto;html=1;entryX=0;entryY=0.5;entryDx=0;entryDy=0;entryPerimeter=0;exitX=1;exitY=0.5;exitDx=0;exitDy=0;exitPerimeter=0;" edge="1" parent="1" source="4Sk_fZ0J_zC8fQVQbB8X-64" target="4Sk_fZ0J_zC8fQVQbB8X-54">
          <mxGeometry relative="1" as="geometry">
            <mxPoint x="122.77999999999997" y="472.7500000000002" as="sourcePoint" />
            <Array as="points">
              <mxPoint x="140" y="615" />
              <mxPoint x="140" y="495" />
            </Array>
          </mxGeometry>
        </mxCell>
        <mxCell id="4Sk_fZ0J_zC8fQVQbB8X-63" value="Log in/out&lt;div&gt;Get token&lt;/div&gt;" style="edgeLabel;html=1;align=center;verticalAlign=middle;resizable=0;points=[];" vertex="1" connectable="0" parent="4Sk_fZ0J_zC8fQVQbB8X-62">
          <mxGeometry x="0.4832" y="-1" relative="1" as="geometry">
            <mxPoint x="-25" y="-1" as="offset" />
          </mxGeometry>
        </mxCell>
        <mxCell id="4Sk_fZ0J_zC8fQVQbB8X-64" value="Frontend" style="outlineConnect=0;dashed=0;verticalLabelPosition=bottom;verticalAlign=top;align=center;html=1;shape=mxgraph.aws3.management_console;fillColor=#D2D3D3;gradientColor=none;" vertex="1" parent="1">
          <mxGeometry x="30" y="583.5" width="63" height="63" as="geometry" />
        </mxCell>
        <mxCell id="4Sk_fZ0J_zC8fQVQbB8X-73" value="Kafka cluster&lt;br&gt;(or other pubsub solution)" style="rounded=1;whiteSpace=wrap;html=1;" vertex="1" parent="1">
          <mxGeometry x="530" y="590" width="120" height="60" as="geometry" />
        </mxCell>
        <mxCell id="4Sk_fZ0J_zC8fQVQbB8X-76" style="edgeStyle=orthogonalEdgeStyle;rounded=0;orthogonalLoop=1;jettySize=auto;html=1;entryX=0.5;entryY=1;entryDx=0;entryDy=0;entryPerimeter=0;exitX=0.5;exitY=1;exitDx=0;exitDy=0;" edge="1" parent="1" source="4Sk_fZ0J_zC8fQVQbB8X-73" target="4Sk_fZ0J_zC8fQVQbB8X-51">
          <mxGeometry relative="1" as="geometry">
            <Array as="points">
              <mxPoint x="590" y="665" />
              <mxPoint x="315" y="665" />
            </Array>
          </mxGeometry>
        </mxCell>
        <mxCell id="4Sk_fZ0J_zC8fQVQbB8X-78" value="Receive updates&lt;div&gt;from other inscances&lt;/div&gt;" style="edgeLabel;html=1;align=center;verticalAlign=middle;resizable=0;points=[];" vertex="1" connectable="0" parent="4Sk_fZ0J_zC8fQVQbB8X-76">
          <mxGeometry x="-0.0123" y="-1" relative="1" as="geometry">
            <mxPoint as="offset" />
          </mxGeometry>
        </mxCell>
        <mxCell id="4Sk_fZ0J_zC8fQVQbB8X-79" style="edgeStyle=orthogonalEdgeStyle;rounded=0;orthogonalLoop=1;jettySize=auto;html=1;entryX=1;entryY=0.808;entryDx=0;entryDy=0;entryPerimeter=0;" edge="1" parent="1" source="4Sk_fZ0J_zC8fQVQbB8X-39" target="4Sk_fZ0J_zC8fQVQbB8X-23">
          <mxGeometry relative="1" as="geometry">
            <Array as="points">
              <mxPoint x="370" y="249" />
            </Array>
          </mxGeometry>
        </mxCell>
        <mxCell id="4Sk_fZ0J_zC8fQVQbB8X-81" value="Persistence&lt;div&gt;provider&lt;/div&gt;" style="verticalLabelPosition=bottom;html=1;verticalAlign=top;align=center;strokeColor=none;fillColor=#00BEF2;shape=mxgraph.azure.server_rack;" vertex="1" parent="1">
          <mxGeometry x="565" y="450" width="50" height="50" as="geometry" />
        </mxCell>
        <mxCell id="4Sk_fZ0J_zC8fQVQbB8X-82" style="edgeStyle=orthogonalEdgeStyle;rounded=0;orthogonalLoop=1;jettySize=auto;html=1;entryX=0.5;entryY=1;entryDx=0;entryDy=0;entryPerimeter=0;" edge="1" parent="1" source="4Sk_fZ0J_zC8fQVQbB8X-73" target="4Sk_fZ0J_zC8fQVQbB8X-81">
          <mxGeometry relative="1" as="geometry">
            <Array as="points" />
          </mxGeometry>
        </mxCell>
        <mxCell id="4Sk_fZ0J_zC8fQVQbB8X-84" value="Receive updates" style="edgeLabel;html=1;align=center;verticalAlign=middle;resizable=0;points=[];" vertex="1" connectable="0" parent="4Sk_fZ0J_zC8fQVQbB8X-82">
          <mxGeometry x="0.2192" y="-1" relative="1" as="geometry">
            <mxPoint x="-1" y="17" as="offset" />
          </mxGeometry>
        </mxCell>
        <mxCell id="4Sk_fZ0J_zC8fQVQbB8X-85" value="S3 / storage" style="sketch=0;points=[[0,0,0],[0.25,0,0],[0.5,0,0],[0.75,0,0],[1,0,0],[0,1,0],[0.25,1,0],[0.5,1,0],[0.75,1,0],[1,1,0],[0,0.25,0],[0,0.5,0],[0,0.75,0],[1,0.25,0],[1,0.5,0],[1,0.75,0]];outlineConnect=0;fontColor=#232F3E;fillColor=#7AA116;strokeColor=#ffffff;dashed=0;verticalLabelPosition=bottom;verticalAlign=top;align=center;html=1;fontSize=12;fontStyle=0;aspect=fixed;shape=mxgraph.aws4.resourceIcon;resIcon=mxgraph.aws4.s3;" vertex="1" parent="1">
          <mxGeometry x="810" y="581" width="78" height="78" as="geometry" />
        </mxCell>
        <mxCell id="4Sk_fZ0J_zC8fQVQbB8X-86" style="edgeStyle=orthogonalEdgeStyle;rounded=0;orthogonalLoop=1;jettySize=auto;html=1;exitX=1;exitY=0.5;exitDx=0;exitDy=0;exitPerimeter=0;entryX=0.5;entryY=0;entryDx=0;entryDy=0;entryPerimeter=0;" edge="1" parent="1" source="4Sk_fZ0J_zC8fQVQbB8X-81" target="4Sk_fZ0J_zC8fQVQbB8X-85">
          <mxGeometry relative="1" as="geometry">
            <mxPoint x="869" y="580" as="targetPoint" />
            <Array as="points">
              <mxPoint x="849" y="475" />
            </Array>
          </mxGeometry>
        </mxCell>
        <mxCell id="4Sk_fZ0J_zC8fQVQbB8X-87" value="Occasionally write changes&lt;div&gt;to storage provider&lt;/div&gt;" style="edgeLabel;html=1;align=center;verticalAlign=middle;resizable=0;points=[];" vertex="1" connectable="0" parent="4Sk_fZ0J_zC8fQVQbB8X-86">
          <mxGeometry x="-0.1211" relative="1" as="geometry">
            <mxPoint x="-14" as="offset" />
          </mxGeometry>
        </mxCell>
        <mxCell id="4Sk_fZ0J_zC8fQVQbB8X-88" value="Filesystem&lt;div&gt;microservice&lt;/div&gt;" style="verticalLabelPosition=bottom;html=1;verticalAlign=top;align=center;strokeColor=none;fillColor=#00BEF2;shape=mxgraph.azure.server_rack;" vertex="1" parent="1">
          <mxGeometry x="290" y="710" width="50" height="50" as="geometry" />
        </mxCell>
        <mxCell id="4Sk_fZ0J_zC8fQVQbB8X-90" value="" style="group" vertex="1" connectable="0" parent="1">
          <mxGeometry x="290" y="460" width="60" height="60" as="geometry" />
        </mxCell>
        <mxCell id="4Sk_fZ0J_zC8fQVQbB8X-54" value="Authentication&lt;div&gt;microservice&lt;/div&gt;" style="verticalLabelPosition=bottom;html=1;verticalAlign=top;align=center;strokeColor=none;fillColor=#00BEF2;shape=mxgraph.azure.server_rack;" vertex="1" parent="4Sk_fZ0J_zC8fQVQbB8X-90">
          <mxGeometry y="10" width="50" height="50" as="geometry" />
        </mxCell>
        <mxCell id="4Sk_fZ0J_zC8fQVQbB8X-70" value="&lt;font style=&quot;font-size: 6px;&quot;&gt;User DB&lt;/font&gt;" style="strokeWidth=2;html=1;shape=mxgraph.flowchart.database;whiteSpace=wrap;verticalAlign=bottom;horizontal=1;labelPosition=center;verticalLabelPosition=top;align=center;" vertex="1" parent="4Sk_fZ0J_zC8fQVQbB8X-90">
          <mxGeometry x="30" width="30" height="30" as="geometry" />
        </mxCell>
        <mxCell id="4Sk_fZ0J_zC8fQVQbB8X-91" style="edgeStyle=orthogonalEdgeStyle;rounded=0;orthogonalLoop=1;jettySize=auto;html=1;entryX=0;entryY=0.5;entryDx=0;entryDy=0;entryPerimeter=0;exitX=1;exitY=0.5;exitDx=0;exitDy=0;exitPerimeter=0;" edge="1" parent="1" source="4Sk_fZ0J_zC8fQVQbB8X-64" target="4Sk_fZ0J_zC8fQVQbB8X-88">
          <mxGeometry relative="1" as="geometry">
            <Array as="points">
              <mxPoint x="140" y="615" />
              <mxPoint x="140" y="735" />
            </Array>
          </mxGeometry>
        </mxCell>
        <mxCell id="4Sk_fZ0J_zC8fQVQbB8X-95" value="List files&lt;div&gt;Manage file permissions&lt;/div&gt;&lt;div&gt;Create/Delete files&lt;/div&gt;&lt;div&gt;Create room (edit file)&lt;/div&gt;" style="edgeLabel;html=1;align=center;verticalAlign=middle;resizable=0;points=[];" vertex="1" connectable="0" parent="4Sk_fZ0J_zC8fQVQbB8X-91">
          <mxGeometry x="0.7226" y="-1" relative="1" as="geometry">
            <mxPoint x="-36" y="-1" as="offset" />
          </mxGeometry>
        </mxCell>
        <mxCell id="4Sk_fZ0J_zC8fQVQbB8X-96" style="edgeStyle=orthogonalEdgeStyle;rounded=0;orthogonalLoop=1;jettySize=auto;html=1;entryX=0.5;entryY=1;entryDx=0;entryDy=0;entryPerimeter=0;" edge="1" parent="1" source="4Sk_fZ0J_zC8fQVQbB8X-88" target="4Sk_fZ0J_zC8fQVQbB8X-85">
          <mxGeometry relative="1" as="geometry" />
        </mxCell>
        <mxCell id="4Sk_fZ0J_zC8fQVQbB8X-97" value="Manage actual stored documents" style="edgeLabel;html=1;align=center;verticalAlign=middle;resizable=0;points=[];" vertex="1" connectable="0" parent="4Sk_fZ0J_zC8fQVQbB8X-96">
          <mxGeometry x="-0.3276" y="-2" relative="1" as="geometry">
            <mxPoint x="73" y="-2" as="offset" />
          </mxGeometry>
        </mxCell>
        <mxCell id="4Sk_fZ0J_zC8fQVQbB8X-99" style="edgeStyle=orthogonalEdgeStyle;rounded=0;orthogonalLoop=1;jettySize=auto;html=1;entryX=0.5;entryY=0;entryDx=0;entryDy=0;entryPerimeter=0;" edge="1" parent="1" source="4Sk_fZ0J_zC8fQVQbB8X-54" target="4Sk_fZ0J_zC8fQVQbB8X-64">
          <mxGeometry relative="1" as="geometry">
            <Array as="points">
              <mxPoint x="315" y="430" />
              <mxPoint x="62" y="430" />
            </Array>
          </mxGeometry>
        </mxCell>
        <mxCell id="4Sk_fZ0J_zC8fQVQbB8X-100" value="JWT" style="edgeLabel;html=1;align=center;verticalAlign=middle;resizable=0;points=[];" vertex="1" connectable="0" parent="4Sk_fZ0J_zC8fQVQbB8X-99">
          <mxGeometry x="-0.1683" relative="1" as="geometry">
            <mxPoint x="21" as="offset" />
          </mxGeometry>
        </mxCell>
        <mxCell id="4Sk_fZ0J_zC8fQVQbB8X-102" value="THE FUTURE" style="rounded=0;whiteSpace=wrap;html=1;labelPosition=center;verticalLabelPosition=top;align=center;verticalAlign=bottom;" vertex="1" parent="1">
          <mxGeometry x="400" y="440" width="90" height="120" as="geometry" />
        </mxCell>
        <mxCell id="4Sk_fZ0J_zC8fQVQbB8X-101" value="Authorization&lt;div&gt;microservice&lt;/div&gt;&lt;div&gt;(future plan)&lt;/div&gt;" style="verticalLabelPosition=bottom;html=1;verticalAlign=top;align=center;strokeColor=none;fillColor=#00BEF2;shape=mxgraph.azure.server_rack;" vertex="1" parent="1">
          <mxGeometry x="420" y="450" width="50" height="50" as="geometry" />
        </mxCell>
        <mxCell id="4Sk_fZ0J_zC8fQVQbB8X-103" value="&lt;font style=&quot;font-size: 6px;&quot;&gt;FS db&lt;/font&gt;" style="strokeWidth=2;html=1;shape=mxgraph.flowchart.database;whiteSpace=wrap;labelPosition=center;verticalLabelPosition=top;align=center;verticalAlign=bottom;" vertex="1" parent="1">
          <mxGeometry x="320" y="700" width="30" height="30" as="geometry" />
        </mxCell>
      </root>
    </mxGraphModel>
  </diagram>
</mxfile>
